<?xml version="1.0" encoding="UTF-8"?>
<svg width="258px" height="230px" viewBox="0 0 258 230" version="1.1" xmlns="http://www.w3.org/2000/svg" xmlns:xlink="http://www.w3.org/1999/xlink">
    <!-- Generator: Sketch 48.2 (47327) - http://www.bohemiancoding.com/sketch -->
    <title>and_gate</title>
    <desc>Created with Sketch.</desc>
    <defs></defs>
    <g id="Page-1" stroke="none" stroke-width="1" fill="none" fill-rule="evenodd">
        <path d="M115,94 L148.5,94 C159.821837,94 169,103.178163 169,114.5 C169,125.821837 159.821837,135 148.5,135 L115,135 L115,94 Z" id="Rectangle" stroke="#000000" stroke-width="2" stroke-linejoin="round"></path>
        <circle id="Oval" stroke="#000000" stroke-width="2" cx="72" cy="171" r="39"></circle>
        <circle id="Oval" stroke="#000000" stroke-width="2" cx="72" cy="58" r="39"></circle>
        <path d="M71.9615584,97.5431561 L71.9615584,99.8777053 C71.9615584,102.086844 73.7524194,103.877705 75.9615584,103.877705 L114.882451,103.877705" id="Path-2" stroke="#000000" stroke-width="2"></path>
        <path d="M71.9615584,125.543156 L71.9615584,127.877705 C71.9615584,130.086844 73.7524194,131.877705 75.9615584,131.877705 L114.882451,131.877705" id="Path-2" stroke="#000000" stroke-width="2" transform="translate(93.422005, 128.710431) scale(1, -1) translate(-93.422005, -128.710431) "></path>
        <circle id="Oval-2" stroke="#000000" stroke-width="2" cx="199.5" cy="114.5" r="19.5"></circle>
        <path d="M169.216221,114.181349 L179.772972,114.181349" id="Path-3" stroke="#000000" stroke-width="2"></path>
    </g>
</svg>